<?xml version="1.0" standalone="no"?>
<!DOCTYPE svg PUBLIC "-//W3C//DTD SVG 20010904//EN"
 "http://www.w3.org/TR/2001/REC-SVG-20010904/DTD/svg10.dtd">
<svg version="1.0" xmlns="http://www.w3.org/2000/svg"
 width="500.000000pt" height="500.000000pt" viewBox="0 0 500.000000 500.000000"
 preserveAspectRatio="xMidYMid meet">

<g transform="translate(0.000000,500.000000) scale(0.100000,-0.100000)"
fill="#000000" stroke="none">
<path d="M2113 4530 c-27 -16 -33 -26 -33 -56 0 -47 12 -67 54 -92 98 -58 102
-226 6 -300 -71 -55 -79 -56 -350 -63 -233 -6 -263 -9 -350 -33 -52 -14 -108
-32 -125 -38 -64 -25 -163 -89 -228 -148 l-68 -63 -128 42 c-145 46 -178 50
-209 21 -21 -20 -22 -27 -21 -218 1 -108 6 -251 13 -317 l12 -120 -28 -57
c-43 -88 -87 -259 -99 -386 -26 -268 50 -553 204 -761 68 -92 181 -203 256
-251 l70 -45 0 -389 1 -389 -24 22 c-42 39 -86 137 -122 266 -67 245 -153 367
-313 444 -62 29 -88 35 -158 39 -141 8 -223 -26 -316 -129 -65 -71 -87 -126
-87 -214 0 -78 22 -142 67 -194 44 -52 76 -68 166 -87 40 -9 80 -22 89 -31 19
-17 34 -62 69 -208 29 -119 63 -189 125 -252 l50 -53 219 0 c209 0 220 1 241
21 21 20 24 20 46 5 20 -15 176 -16 1705 -16 1046 0 1691 4 1707 10 35 13 59
64 51 106 -12 68 56 64 -1045 65 l-995 0 51 20 c118 45 199 183 174 295 -23
100 -79 172 -169 217 l-65 32 -246 5 c-151 3 -255 10 -271 17 -44 19 -60 70
-57 174 l3 90 88 33 c74 28 168 78 226 121 53 38 184 181 215 235 102 175 141
326 140 555 0 223 -43 407 -141 611 -25 52 -44 96 -42 98 2 2 38 21 79 42 110
57 215 165 269 276 131 270 77 554 -154 815 -81 92 -265 196 -412 234 -94 24
-100 24 -140 -1z m597 -666 c22 -171 -23 -309 -136 -421 -76 -75 -129 -103
-249 -133 -76 -19 -106 -22 -195 -17 -89 6 -241 35 -256 50 -2 2 53 7 123 10
227 10 371 65 499 192 113 112 183 284 172 423 l-5 57 19 -45 c10 -24 23 -77
28 -116z m-1690 -324 c41 -12 150 -69 225 -118 249 -161 366 -219 536 -262
121 -31 319 -53 414 -45 l80 6 54 -108 c65 -130 107 -249 126 -362 8 -46 15
-85 15 -87 0 -2 -31 -4 -70 -4 -81 0 -110 -19 -110 -70 0 -51 29 -70 110 -70
l70 0 0 -39 c0 -21 -3 -52 -6 -68 -5 -27 -8 -28 -48 -26 -32 2 -49 -3 -64 -18
-42 -39 -19 -111 38 -124 37 -8 35 -19 -21 -118 -95 -168 -222 -267 -419 -329
-68 -21 -94 -23 -265 -23 -181 0 -194 1 -280 28 -263 83 -487 275 -581 498
-25 58 -31 84 -23 90 13 8 93 16 259 25 101 6 117 10 137 30 28 28 29 64 4 95
-19 24 -21 24 -178 19 -87 -2 -185 -4 -218 -5 l-60 0 -9 97 c-4 54 -5 114 -2
134 l7 36 20 -21 c28 -30 65 -36 105 -17 51 24 60 52 46 139 -51 311 -82 595
-82 741 l0 45 83 -30 c45 -17 93 -34 107 -39z m441 -2040 c63 -13 137 -20 212
-20 l115 0 4 -107 c5 -121 21 -168 85 -242 70 -82 83 -85 385 -91 251 -5 268
-6 295 -26 56 -42 66 -101 23 -144 -28 -28 -68 -25 -115 8 l-40 27 -270 6
c-290 5 -309 9 -394 64 -22 15 -51 41 -64 59 -28 37 -57 118 -57 158 0 36 -24
84 -49 98 -51 27 -124 -4 -135 -58 -20 -91 38 -263 117 -349 41 -45 140 -106
190 -118 25 -7 27 -11 27 -56 l0 -49 -255 0 -255 0 -2 441 c-2 242 -1 442 0
444 2 2 22 -3 45 -11 22 -8 84 -23 138 -34z m-918 -70 c55 -26 128 -101 161
-165 14 -27 39 -102 56 -165 65 -245 116 -325 262 -412 37 -22 68 -45 68 -52
0 -8 -43 -10 -152 -8 -136 3 -154 1 -165 -14 -12 -16 -13 -16 -13 -1 0 9 -6
17 -12 17 -34 0 -90 123 -114 245 -41 221 -111 307 -262 325 -57 7 -71 13 -94
39 -31 35 -34 57 -14 104 40 94 174 136 279 87z m1835 -725 c15 -8 45 -22 67
-29 37 -14 26 -15 -152 -15 l-193 -1 0 30 0 30 126 0 c94 0 133 -4 152 -15z"/>
<path d="M957 3387 c11 -92 44 -323 49 -340 5 -14 18 -6 75 47 39 36 94 81
124 101 30 19 57 39 60 44 11 19 -121 102 -276 173 l-37 16 5 -41z"/>
<path d="M1450 2554 c-43 -27 -64 -64 -64 -115 0 -54 21 -91 67 -119 61 -37
136 -15 177 52 54 88 -12 198 -117 198 -21 0 -49 -8 -63 -16z"/>
<path d="M1932 2404 c-28 -19 -29 -57 -2 -84 23 -23 15 -51 -21 -70 -22 -12
-29 -8 -75 37 -20 20 -27 21 -48 12 -80 -37 11 -179 114 -179 39 0 97 27 110
50 9 16 13 14 45 -16 42 -39 93 -45 152 -18 41 20 83 78 83 116 0 37 -40 64
-69 48 -12 -6 -21 -15 -21 -20 0 -5 -11 -17 -24 -25 -28 -19 -58 -9 -76 25 -8
15 -6 24 10 40 11 11 20 31 20 44 0 38 -35 56 -110 56 -43 0 -73 -5 -88 -16z"/>
<path d="M1070 2220 c-72 -10 -85 -16 -99 -46 -15 -34 -14 -48 7 -74 16 -20
27 -22 87 -21 120 2 165 24 165 79 0 55 -57 77 -160 62z"/>
<path d="M3812 3735 c-44 -19 -68 -73 -52 -121 22 -66 87 -92 150 -59 76 39
66 154 -17 186 -32 12 -41 11 -81 -6z"/>
<path d="M3143 3688 c-54 -26 -66 -123 -20 -166 50 -46 131 -32 162 29 44 85
-54 179 -142 137z"/>
<path d="M3481 3594 c-13 -9 -29 -32 -37 -50 -40 -95 93 -177 164 -101 62 66
19 167 -70 167 -19 0 -44 -7 -57 -16z"/>
<path d="M4095 3565 c-42 -22 -55 -43 -55 -88 0 -49 13 -73 50 -92 46 -24 78
-19 116 19 26 26 34 42 34 71 0 29 -8 45 -34 71 -37 37 -65 42 -111 19z"/>
<path d="M2844 3179 c-16 -17 -45 -39 -64 -50 -64 -34 -63 -31 -42 -80 86
-202 115 -351 116 -589 1 -209 -9 -284 -59 -435 -48 -143 -154 -324 -215 -368
-9 -7 -45 -38 -79 -69 -56 -50 -61 -59 -51 -77 13 -26 71 -63 123 -80 28 -10
145 -13 438 -13 l399 0 0 -213 0 -213 -162 -4 c-185 -3 -212 -12 -224 -73 -8
-46 3 -73 39 -96 31 -18 57 -19 580 -19 450 0 554 3 582 14 61 26 73 86 26
138 l-29 33 -166 3 -166 3 2 212 3 212 227 2 c220 3 230 3 277 27 55 29 96 72
123 133 18 40 19 79 19 735 0 773 2 748 -69 821 -20 21 -60 46 -89 57 -52 19
-79 20 -782 20 l-727 0 -30 -31z m1364 -293 c9 -10 33 -26 52 -37 21 -11 28
-18 18 -19 -25 0 -83 -55 -98 -91 l-13 -31 -12 29 c-14 34 -79 93 -101 93 -9
0 5 15 32 33 26 17 55 46 63 63 l16 31 13 -26 c7 -14 21 -34 30 -45z m-898 4
c29 -29 26 -74 -6 -99 -24 -19 -40 -21 -169 -21 -129 0 -145 2 -169 21 -32 25
-35 70 -6 99 18 18 33 20 175 20 142 0 157 -2 175 -20z m552 3 c23 -28 28 -51
17 -77 -16 -35 -50 -46 -140 -46 -72 0 -82 3 -104 25 -30 30 -31 54 -4 89 20
25 25 26 118 26 81 0 101 -3 113 -17z m-276 -311 c15 -10 34 -47 34 -66 0 -9
-9 -25 -20 -36 -19 -19 -33 -20 -284 -20 l-265 0 -20 26 c-12 15 -21 32 -21
39 0 7 9 24 21 39 l20 26 262 0 c144 0 267 -4 273 -8z m-108 -272 c28 -26 28
-71 1 -96 -18 -16 -40 -19 -153 -22 -144 -3 -172 4 -194 51 -15 32 -3 63 31
77 12 5 83 9 158 9 123 1 137 -1 157 -19z m444 8 c27 -22 36 -49 26 -78 -12
-37 -46 -50 -127 -50 -58 0 -72 3 -95 25 -34 31 -34 67 0 94 22 17 41 21 103
21 47 0 83 -5 93 -12z m-323 -232 c27 -25 27 -64 -1 -93 -21 -23 -23 -23 -280
-23 l-259 0 -24 25 c-37 36 -28 86 18 105 12 5 135 8 273 7 232 -2 254 -3 273
-21z m226 -236 c25 -27 22 -80 -6 -102 -19 -16 -53 -18 -391 -18 l-369 0 -24
25 c-30 30 -31 54 -4 89 l20 26 378 0 c365 0 379 -1 396 -20z"/>
</g>
</svg>
