<?xml version="1.0" encoding="UTF-8"?>
<!DOCTYPE svg PUBLIC "-//W3C//DTD SVG 1.1//EN" "http://www.w3.org/Graphics/SVG/1.1/DTD/svg11.dtd">
<svg xmlns="http://www.w3.org/2000/svg" version="1.1" width="500px" height="500px" style="shape-rendering:geometricPrecision; text-rendering:geometricPrecision; image-rendering:optimizeQuality; fill-rule:evenodd; clip-rule:evenodd" xmlns:xlink="http://www.w3.org/1999/xlink">
<g><path style="opacity:1" fill="#fdf6fc" d="M 215.5,341.5 C 214.25,341.423 213.417,340.756 213,339.5C 210.871,340.863 210.371,340.529 211.5,338.5C 210.349,337.269 209.183,337.269 208,338.5C 207.131,335.258 205.631,332.425 203.5,330C 205.819,328.853 207.152,327.019 207.5,324.5C 220.621,317.519 230.788,307.519 238,294.5C 238.709,291.464 239.876,288.631 241.5,286C 238.201,286.175 235.367,284.675 233,281.5C 231.622,277.013 232.788,273.513 236.5,271C 239.324,271.431 242.158,270.931 245,269.5C 246.108,265.914 246.608,262.247 246.5,258.5C 241.243,258.53 236.076,257.864 231,256.5C 230.055,256.095 229.388,255.428 229,254.5C 227.853,250.402 228.686,246.902 231.5,244C 236.155,243.501 240.821,243.334 245.5,243.5C 243.785,223.02 237.119,204.354 225.5,187.5C 197.574,190.098 171.241,184.932 146.5,172C 132.525,162.339 117.858,153.672 102.5,146C 95.9151,143.539 89.2484,141.372 82.5,139.5C 83.444,167.386 86.444,195.053 91.5,222.5C 89.4972,232.996 83.8306,235.329 74.5,229.5C 73.7518,232.497 73.0851,235.497 72.5,238.5C 73.2763,243.812 73.943,249.145 74.5,254.5C 88.8062,253.127 103.139,252.627 117.5,253C 122.823,257.714 122.823,262.38 117.5,267C 105.508,268.074 93.5082,269.074 81.5,270C 80.5,270.333 79.5,270.667 78.5,271C 79.3366,272.011 79.67,273.178 79.5,274.5C 77.665,273.878 76.4983,272.544 76,270.5C 75.2961,273.946 73.9628,273.946 72,270.5C 71.342,272.108 71.842,273.275 73.5,274C 71.4311,274.324 71.0977,275.158 72.5,276.5C 71.7515,278.332 70.7515,279.999 69.5,281.5C 69.7093,282.086 70.0426,282.586 70.5,283C 68.8866,283.089 67.7199,282.255 67,280.5C 65.4329,284.144 66.5995,286.977 70.5,289C 69.0993,289.41 67.766,289.91 66.5,290.5C 50.4298,255.89 50.5964,221.223 67,186.5C 65.6454,164.538 65.3121,142.538 66,120.5C 69.3379,117.682 73.1712,116.849 77.5,118C 85.5359,120.401 93.5359,122.901 101.5,125.5C 116.219,109.474 134.552,100.307 156.5,98C 171.167,97.6667 185.833,97.3333 200.5,97C 217.905,93.2964 223.738,83.1298 218,66.5C 216.954,64.9095 215.787,63.4095 214.5,62C 207.89,59.7923 205.724,55.2923 208,48.5C 210,45.8333 212.667,44.5 216,44.5C 252.837,50.671 276.504,71.671 287,107.5C 292.065,142.872 278.565,168.372 246.5,184C 265.641,217.964 270.141,253.798 260,291.5C 251.58,314.075 236.747,330.742 215.5,341.5 Z"/></g>
<g><path style="opacity:1" fill="#000000" d="M 266.5,100.5 C 276.918,129.839 268.252,151.672 240.5,166C 222.96,172.159 205.626,171.826 188.5,165C 208.658,166.33 227.325,161.496 244.5,150.5C 259.997,137.499 267.331,120.832 266.5,100.5 Z"/></g>
<g><path style="opacity:1" fill="#fcf4fb" d="M 382.5,124.5 C 393.032,124.199 397.199,129.199 395,139.5C 391.723,145.109 386.89,146.942 380.5,145C 372.106,137.167 372.773,130.333 382.5,124.5 Z"/></g>
<g><path style="opacity:1" fill="#fbf4fa" d="M 315.5,129.5 C 324.812,128.98 329.312,133.314 329,142.5C 325.706,149.936 320.206,152.103 312.5,149C 306.491,141.212 307.491,134.712 315.5,129.5 Z"/></g>
<g><path style="opacity:1" fill="#000000" d="M 207.5,324.5 C 170.982,339.006 136.982,334.506 105.5,311C 94.6437,300.323 85.977,288.157 79.5,274.5C 79.67,273.178 79.3366,272.011 78.5,271C 79.5,270.667 80.5,270.333 81.5,270C 93.5082,269.074 105.508,268.074 117.5,267C 122.823,262.38 122.823,257.714 117.5,253C 103.139,252.627 88.8062,253.127 74.5,254.5C 73.943,249.145 73.2763,243.812 72.5,238.5C 73.0851,235.497 73.7518,232.497 74.5,229.5C 83.8306,235.329 89.4972,232.996 91.5,222.5C 86.444,195.053 83.444,167.386 82.5,139.5C 89.2484,141.372 95.9151,143.539 102.5,146C 117.858,153.672 132.525,162.339 146.5,172C 171.241,184.932 197.574,190.098 225.5,187.5C 237.119,204.354 243.785,223.02 245.5,243.5C 240.821,243.334 236.155,243.501 231.5,244C 228.686,246.902 227.853,250.402 229,254.5C 229.388,255.428 230.055,256.095 231,256.5C 236.076,257.864 241.243,258.53 246.5,258.5C 246.608,262.247 246.108,265.914 245,269.5C 242.158,270.931 239.324,271.431 236.5,271C 232.788,273.513 231.622,277.013 233,281.5C 235.367,284.675 238.201,286.175 241.5,286C 239.876,288.631 238.709,291.464 238,294.5C 230.788,307.519 220.621,317.519 207.5,324.5 Z"/></g>
<g><path style="opacity:1" fill="#fbf4fa" d="M 351.5,137.5 C 361.29,138.754 364.79,144.087 362,153.5C 358.144,158.53 353.311,159.697 347.5,157C 342.414,152.439 341.581,147.273 345,141.5C 347.013,139.752 349.18,138.418 351.5,137.5 Z"/></g>
<g><path style="opacity:1" fill="#fcf4fb" d="M 410.5,141.5 C 422.735,142.641 426.069,148.641 420.5,159.5C 411.246,165.043 405.246,162.543 402.5,152C 403.128,146.881 405.794,143.381 410.5,141.5 Z"/></g>
<g><path style="opacity:1" fill="#fbf4fa" d="M 94.5,156.5 C 106.301,160.894 116.968,167.061 126.5,175C 121.157,179.012 115.824,183.012 110.5,187C 106.964,190.201 103.797,193.701 101,197.5C 97.7731,184.024 95.6064,170.358 94.5,156.5 Z"/></g>
<g><path style="opacity:1" fill="#fdf6fc" d="M 286.5,178.5 C 335.834,178.333 385.168,178.5 434.5,179C 445.981,182.15 452.481,189.65 454,201.5C 454.975,247.538 454.641,293.538 453,339.5C 449.859,347.974 444.026,353.808 435.5,357C 419.732,358.139 404.065,358.639 388.5,358.5C 388.5,372.5 388.5,386.5 388.5,400.5C 399.172,400.333 409.839,400.5 420.5,401C 427.916,404.838 429.25,410.171 424.5,417C 423.167,417.667 421.833,418.333 420.5,419C 383.167,419.667 345.833,419.667 308.5,419C 302.016,417.202 299.849,413.035 302,406.5C 302.833,404.333 304.333,402.833 306.5,402C 317.756,400.567 329.09,400.067 340.5,400.5C 340.5,386.5 340.5,372.5 340.5,358.5C 314.824,358.423 289.158,358.256 263.5,358C 254.514,357.344 247.514,353.344 242.5,346C 269.06,326.393 283.227,299.893 285,266.5C 286.86,240.019 282.36,214.685 271.5,190.5C 274.626,188.098 277.96,185.931 281.5,184C 283.373,182.296 285.04,180.463 286.5,178.5 Z"/></g>
<g><path style="opacity:1" fill="#000000" d="M 415.5,205.5 C 418.639,209.47 422.305,212.97 426.5,216C 421.745,218.667 418.245,222.501 416,227.5C 414.92,225.004 413.586,222.67 412,220.5C 409.691,219.025 407.524,217.358 405.5,215.5C 409.876,213.124 413.21,209.79 415.5,205.5 Z"/></g>
<g><path style="opacity:1" fill="#000000" d="M 298.5,208.5 C 308.172,208.334 317.839,208.5 327.5,209C 332.249,211.327 333.416,214.827 331,219.5C 329.829,220.893 328.329,221.727 326.5,222C 317.5,222.667 308.5,222.667 299.5,222C 291.972,217.898 291.639,213.398 298.5,208.5 Z"/></g>
<g><path style="opacity:1" fill="#000000" d="M 366.5,208.5 C 372.176,208.334 377.843,208.501 383.5,209C 387.296,211.263 388.296,214.429 386.5,218.5C 385.528,220.636 383.861,221.803 381.5,222C 375.32,223.022 369.32,222.522 363.5,220.5C 359.572,215.283 360.572,211.283 366.5,208.5 Z"/></g>
<g><path style="opacity:1" fill="#000000" d="M 305.5,240.5 C 322.503,240.333 339.503,240.5 356.5,241C 362.891,245.079 362.891,249.079 356.5,253C 339.5,253.667 322.5,253.667 305.5,253C 301.876,250.839 300.709,247.672 302,243.5C 303.145,242.364 304.312,241.364 305.5,240.5 Z"/></g>
<g><path style="opacity:1" fill="#fdf6fb" d="M 150.5,241.5 C 163.396,243.957 167.396,251.29 162.5,263.5C 155.506,271.054 148.172,271.388 140.5,264.5C 136.418,258.114 136.585,251.781 141,245.5C 143.968,243.489 147.134,242.156 150.5,241.5 Z"/></g>
<g><path style="opacity:1" fill="#fcf5fb" d="M 192.5,257.5 C 198.509,257.334 204.509,257.501 210.5,258C 213.325,262.068 212.992,265.901 209.5,269.5C 210.274,274.15 212.94,275.65 217.5,274C 219.24,269.965 222.24,268.299 226.5,269C 230.09,276.475 228.09,282.142 220.5,286C 213.631,288.854 207.631,287.687 202.5,282.5C 192.674,289.901 183.841,288.901 176,279.5C 173,274.1 174.333,270.433 180,268.5C 182.449,269.944 184.615,271.778 186.5,274C 190.163,275.002 192.496,273.668 193.5,270C 190.004,266.045 189.671,261.879 192.5,257.5 Z"/></g>
<g><path style="opacity:1" fill="#000000" d="M 317.5,266.5 C 326.506,266.334 335.506,266.5 344.5,267C 348.665,268.483 350.165,271.316 349,275.5C 347.635,277.86 345.635,279.527 343,280.5C 333.982,280.234 324.815,279.734 315.5,279C 312.191,275.923 311.691,272.423 314,268.5C 315.579,269.172 316.746,268.505 317.5,266.5 Z"/></g>
<g><path style="opacity:1" fill="#000000" d="M 374.5,266.5 C 379.511,266.334 384.511,266.501 389.5,267C 395.319,270.098 395.986,274.098 391.5,279C 386.914,279.197 382.414,279.697 378,280.5C 368.636,277.512 367.469,272.846 374.5,266.5 Z"/></g>
<g><path style="opacity:1" fill="#fdf6fc" d="M 79.5,274.5 C 85.977,288.157 94.6437,300.323 105.5,311C 136.982,334.506 170.982,339.006 207.5,324.5C 207.152,327.019 205.819,328.853 203.5,330C 205.631,332.425 207.131,335.258 208,338.5C 209.183,337.269 210.349,337.269 211.5,338.5C 210.371,340.529 210.871,340.863 213,339.5C 213.417,340.756 214.25,341.423 215.5,341.5C 210.037,344.057 204.37,346.39 198.5,348.5C 197.336,354.472 197.17,360.472 198,366.5C 199.167,371.667 202.333,374.833 207.5,376C 223.886,376.06 240.22,376.727 256.5,378C 270.205,382.555 277.872,392.055 279.5,406.5C 277.408,419.753 270.075,428.586 257.5,433C 322.207,433.83 386.874,433.663 451.5,432.5C 460.549,434.939 462.716,440.273 458,448.5C 457.097,449.701 455.931,450.535 454.5,451C 341.167,451.667 227.833,451.667 114.5,451C 113.058,450.623 112.058,449.79 111.5,448.5C 111.665,445.482 111.498,442.482 111,439.5C 108.904,438.285 109.071,437.451 111.5,437C 110.756,435.961 109.756,435.461 108.5,435.5C 99.3339,430.836 91.5006,424.503 85,416.5C 78.955,403.366 74.2883,389.7 71,375.5C 66.0308,363.185 57.0308,356.185 44,354.5C 33.2325,354.782 26.7325,360.116 24.5,370.5C 25.4432,373.4 27.1099,375.733 29.5,377.5C 44.0758,377.596 54.2425,384.262 60,397.5C 61.6857,410.142 65.1857,422.142 70.5,433.5C 69.9713,437.192 68.4713,437.858 66,435.5C 63.3096,436.262 60.8096,437.929 58.5,440.5C 56.7859,439.391 56.1192,440.058 56.5,442.5C 55.5,442.5 54.5,442.5 53.5,442.5C 51.8277,439.978 50.3277,437.312 49,434.5C 45.9975,423.822 42.9975,413.155 40,402.5C 38.4207,400.959 36.5873,399.792 34.5,399C 17.13,397.464 7.46334,387.964 5.5,370.5C 7.47385,352.026 17.4739,340.526 35.5,336C 64.5794,334.149 83.4127,347.315 92,375.5C 94.02,387.264 98.02,398.264 104,408.5C 105.019,409.687 106.186,410.687 107.5,411.5C 108.833,385.833 108.833,360.167 107.5,334.5C 93.2873,326.788 81.7873,316.122 73,302.5C 70.5667,298.633 68.4,294.633 66.5,290.5C 67.766,289.91 69.0993,289.41 70.5,289C 66.5995,286.977 65.4329,284.144 67,280.5C 67.7199,282.255 68.8866,283.089 70.5,283C 70.0426,282.586 69.7093,282.086 69.5,281.5C 70.7515,279.999 71.7515,278.332 72.5,276.5C 71.0977,275.158 71.4311,274.324 73.5,274C 71.842,273.275 71.342,272.108 72,270.5C 73.9628,273.946 75.2961,273.946 76,270.5C 76.4983,272.544 77.665,273.878 79.5,274.5 Z M 210.5,427.5 C 218.507,427.334 226.507,427.5 234.5,428C 236.492,428.574 237.992,429.741 239,431.5C 239.333,431.167 239.667,430.833 240,430.5C 241.067,431.191 242.234,431.691 243.5,432C 233.461,433.121 223.628,433.621 214,433.5C 209.968,433.098 208.801,431.098 210.5,427.5 Z"/></g>
<g><path style="opacity:1" fill="#fcf4fb" d="M 109.5,276.5 C 118.656,274.832 122.823,278.499 122,287.5C 120.179,290.258 117.845,291.258 115,290.5C 110.866,291.196 106.7,291.863 102.5,292.5C 95.609,290.83 93.7756,286.83 97,280.5C 98.1711,279.107 99.6711,278.273 101.5,278C 104.365,277.817 107.031,277.317 109.5,276.5 Z"/></g>
<g><path style="opacity:1" fill="#000000" d="M 342.5,288.5 C 347.418,289.281 352.418,289.781 357.5,290C 362.977,294.04 362.644,298.04 356.5,302C 339.833,302.667 323.167,302.667 306.5,302C 303.143,301.537 301.81,299.87 302.5,297C 301.692,296.692 301.025,296.192 300.5,295.5C 300.722,292.287 302.388,290.454 305.5,290C 318.007,289.831 330.34,289.331 342.5,288.5 Z"/></g>
<g><path style="opacity:1" fill="#000000" d="M 305.5,312.5 C 330.169,312.333 354.836,312.5 379.5,313C 383.124,315.161 384.291,318.328 383,322.5C 381.681,324.487 379.848,325.654 377.5,326C 353.833,326.667 330.167,326.667 306.5,326C 302.898,325.15 301.231,322.817 301.5,319C 301.667,317.833 301.833,316.667 302,315.5C 303.518,314.837 304.685,313.837 305.5,312.5 Z"/></g>
<g><path style="opacity:1" fill="#000000" d="M 128.5,345.5 C 144.771,350.918 161.438,352.918 178.5,351.5C 175.153,367.967 179.82,381.467 192.5,392C 194.717,393.275 197.051,394.275 199.5,395C 216.167,395.333 232.833,395.667 249.5,396C 257.8,397.427 260.966,402.26 259,410.5C 257.38,412.726 255.214,414.06 252.5,414.5C 248.818,413.326 245.485,411.493 242.5,409C 223.8,408.904 205.133,408.238 186.5,407C 170.742,402.011 162.909,391.177 163,374.5C 156.632,366.489 150.632,366.822 145,375.5C 143.679,390.899 148.179,403.732 158.5,414C 164.212,418.525 170.546,422.025 177.5,424.5C 178.48,427.086 178.813,429.753 178.5,432.5C 162.519,432.833 146.685,433.166 131,433.5C 129.698,432.915 128.531,432.249 127.5,431.5C 127.175,402.76 127.509,374.093 128.5,345.5 Z"/></g>
<g><path style="opacity:1" fill="#000000" d="M 108.5,435.5 C 108.631,436.239 108.464,436.906 108,437.5C 97.9718,436.695 87.8052,436.528 77.5,437C 76.8742,437.75 76.3742,438.584 76,439.5C 74.7701,436.964 72.9368,434.964 70.5,433.5C 65.1857,422.142 61.6857,410.142 60,397.5C 54.2425,384.262 44.0758,377.596 29.5,377.5C 27.1099,375.733 25.4432,373.4 24.5,370.5C 26.7325,360.116 33.2325,354.782 44,354.5C 57.0308,356.185 66.0308,363.185 71,375.5C 74.2883,389.7 78.955,403.366 85,416.5C 91.5006,424.503 99.3339,430.836 108.5,435.5 Z"/></g>
<g><path style="opacity:1" fill="#f9e7f8" d="M 128.5,345.5 C 127.509,374.093 127.175,402.76 127.5,431.5C 125.959,430.442 124.959,428.942 124.5,427C 125.544,404.844 125.544,383.177 124.5,362C 124.485,358.401 125.152,355.901 126.5,354.5C 126.333,353.167 126.167,351.833 126,350.5C 125.667,352.167 125.333,353.833 125,355.5C 124.242,353.231 124.409,351.064 125.5,349C 124.551,348.383 123.718,348.549 123,349.5C 121.128,348.176 120.295,346.676 120.5,345C 123.227,344.807 125.894,344.973 128.5,345.5 Z"/></g>
<g><path style="opacity:1" fill="#fdfdfd" d="M 70.5,433.5 C 72.9368,434.964 74.7701,436.964 76,439.5C 76.3742,438.584 76.8742,437.75 77.5,437C 87.8052,436.528 97.9718,436.695 108,437.5C 108.464,436.906 108.631,436.239 108.5,435.5C 109.756,435.461 110.756,435.961 111.5,437C 109.071,437.451 108.904,438.285 111,439.5C 111.498,442.482 111.665,445.482 111.5,448.5C 110.038,449.458 108.705,450.624 107.5,452C 92.5,452.667 77.5,452.667 62.5,452C 58.6198,449.621 55.6198,446.454 53.5,442.5C 54.5,442.5 55.5,442.5 56.5,442.5C 56.1192,440.058 56.7859,439.391 58.5,440.5C 60.8096,437.929 63.3096,436.262 66,435.5C 68.4713,437.858 69.9713,437.192 70.5,433.5 Z"/></g>
</svg>
